<mxfile host="app.diagrams.net" agent="Mozilla/5.0 (X11; Linux x86_64) AppleWebKit/537.36 (KHTML, like Gecko) Chrome/128.0.0.0 Safari/537.36" version="24.7.14">
  <diagram name="Page-1" id="jCJWg8iVVMsIMILv0vmF">
    <mxGraphModel dx="1434" dy="750" grid="1" gridSize="10" guides="1" tooltips="1" connect="1" arrows="1" fold="1" page="1" pageScale="1" pageWidth="850" pageHeight="1100" math="0" shadow="0">
      <root>
        <mxCell id="0" />
        <mxCell id="1" parent="0" />
        <mxCell id="I5Wyxy-ud4l5nD9NaTTh-4" style="edgeStyle=orthogonalEdgeStyle;rounded=0;orthogonalLoop=1;jettySize=auto;html=1;entryX=-0.012;entryY=0.091;entryDx=0;entryDy=0;entryPerimeter=0;" edge="1" parent="1" target="I5Wyxy-ud4l5nD9NaTTh-3">
          <mxGeometry relative="1" as="geometry">
            <mxPoint x="270" y="271" as="sourcePoint" />
            <mxPoint x="520" y="271" as="targetPoint" />
          </mxGeometry>
        </mxCell>
        <mxCell id="I5Wyxy-ud4l5nD9NaTTh-5" value="[connect]" style="edgeLabel;html=1;align=center;verticalAlign=middle;resizable=0;points=[];fontSize=24;" vertex="1" connectable="0" parent="I5Wyxy-ud4l5nD9NaTTh-4">
          <mxGeometry x="0.088" relative="1" as="geometry">
            <mxPoint x="-22" y="-25" as="offset" />
          </mxGeometry>
        </mxCell>
        <mxCell id="I5Wyxy-ud4l5nD9NaTTh-1" value="&lt;font style=&quot;font-size: 18px;&quot;&gt;Unauthenticated Client&lt;/font&gt;" style="rounded=0;whiteSpace=wrap;html=1;" vertex="1" parent="1">
          <mxGeometry x="20" y="250" width="250" height="230" as="geometry" />
        </mxCell>
        <mxCell id="I5Wyxy-ud4l5nD9NaTTh-3" value="&lt;font style=&quot;font-size: 18px;&quot;&gt;Server&lt;/font&gt;" style="rounded=0;whiteSpace=wrap;html=1;" vertex="1" parent="1">
          <mxGeometry x="600" y="250" width="250" height="220" as="geometry" />
        </mxCell>
        <mxCell id="I5Wyxy-ud4l5nD9NaTTh-6" value="Inital conversation" style="text;html=1;align=center;verticalAlign=middle;resizable=0;points=[];autosize=1;strokeColor=none;fillColor=none;fontSize=20;" vertex="1" parent="1">
          <mxGeometry x="335" y="40" width="180" height="40" as="geometry" />
        </mxCell>
        <mxCell id="I5Wyxy-ud4l5nD9NaTTh-8" style="edgeStyle=orthogonalEdgeStyle;rounded=0;orthogonalLoop=1;jettySize=auto;html=1;entryX=0;entryY=0.5;entryDx=0;entryDy=0;" edge="1" parent="1">
          <mxGeometry relative="1" as="geometry">
            <mxPoint x="590" y="320" as="sourcePoint" />
            <mxPoint x="280" y="320" as="targetPoint" />
          </mxGeometry>
        </mxCell>
        <mxCell id="I5Wyxy-ud4l5nD9NaTTh-10" value="[handshake_kex]" style="edgeLabel;html=1;align=center;verticalAlign=middle;resizable=0;points=[];fontSize=20;" vertex="1" connectable="0" parent="I5Wyxy-ud4l5nD9NaTTh-8">
          <mxGeometry x="0.088" y="-1" relative="1" as="geometry">
            <mxPoint x="6" y="-13" as="offset" />
          </mxGeometry>
        </mxCell>
        <mxCell id="I5Wyxy-ud4l5nD9NaTTh-11" style="edgeStyle=orthogonalEdgeStyle;rounded=0;orthogonalLoop=1;jettySize=auto;html=1;" edge="1" parent="1">
          <mxGeometry relative="1" as="geometry">
            <mxPoint x="280" y="380" as="sourcePoint" />
            <mxPoint x="590" y="380" as="targetPoint" />
          </mxGeometry>
        </mxCell>
        <mxCell id="I5Wyxy-ud4l5nD9NaTTh-12" value="[handshake_kex_ok]" style="edgeLabel;html=1;align=center;verticalAlign=middle;resizable=0;points=[];fontSize=20;" vertex="1" connectable="0" parent="I5Wyxy-ud4l5nD9NaTTh-11">
          <mxGeometry x="0.088" y="-1" relative="1" as="geometry">
            <mxPoint x="-16" y="-21" as="offset" />
          </mxGeometry>
        </mxCell>
        <mxCell id="I5Wyxy-ud4l5nD9NaTTh-13" style="edgeStyle=orthogonalEdgeStyle;rounded=0;orthogonalLoop=1;jettySize=auto;html=1;entryX=0;entryY=0.5;entryDx=0;entryDy=0;" edge="1" parent="1">
          <mxGeometry relative="1" as="geometry">
            <mxPoint x="590" y="460" as="sourcePoint" />
            <mxPoint x="280" y="460" as="targetPoint" />
          </mxGeometry>
        </mxCell>
        <mxCell id="I5Wyxy-ud4l5nD9NaTTh-14" value="[handshake_kex_ok &lt;br&gt;(encrypted)]" style="edgeLabel;html=1;align=center;verticalAlign=middle;resizable=0;points=[];fontSize=20;" vertex="1" connectable="0" parent="I5Wyxy-ud4l5nD9NaTTh-13">
          <mxGeometry x="0.088" y="-1" relative="1" as="geometry">
            <mxPoint x="19" y="-29" as="offset" />
          </mxGeometry>
        </mxCell>
      </root>
    </mxGraphModel>
  </diagram>
</mxfile>
